<svg version="1.1" viewBox="0.0 0.0 960.0 720.0" fill="none" stroke="none" stroke-linecap="square" stroke-miterlimit="10" xmlns:xlink="http://www.w3.org/1999/xlink" xmlns="http://www.w3.org/2000/svg"><clipPath id="p.0"><path d="m0 0l960.0 0l0 720.0l-960.0 0l0 -720.0z" clip-rule="nonzero"/></clipPath><g clip-path="url(#p.0)"><path fill="#000000" fill-opacity="0.0" d="m0 0l960.0 0l0 720.0l-960.0 0z" fill-rule="evenodd"/><path fill="#ffffff" d="m723.4488 360.0l-172.04346 4.8434143l0 -9.686829zm-71.32147 -190.925l-118.552185 138.35637l-6.1759644 -6.8495483zm-172.12732 -79.075l4.3671265 190.80704l-8.734253 0zm-172.14987 79.075l124.75073 131.50682l-6.175995 6.8495483zm-71.29895 190.925l172.04352 -4.8434143l0 9.686829zm71.29895 190.90002l118.57474 -138.33139l6.175995 6.8495483zm172.14987 79.099976l-4.3671265 -190.80704l8.734253 0zm172.12732 -79.099976l-124.72815 -131.48184l6.1759644 -6.8495483zm-187.34286 -190.90002c0 -9.319794 6.8122253 -16.875 15.215546 -16.875c8.40332 0 15.215546 7.5552063 15.215546 16.875c0 9.319794 -6.8122253 16.875 -15.215546 16.875c-8.40332 0 -15.215546 -7.5552063 -15.215546 -16.875z" fill-rule="evenodd"/><path stroke="#000000" stroke-width="1.0" stroke-linejoin="round" stroke-linecap="butt" d="m723.4488 360.0l-172.04346 4.8434143l0 -9.686829zm-71.32147 -190.925l-118.552185 138.35637l-6.1759644 -6.8495483zm-172.12732 -79.075l4.3671265 190.80704l-8.734253 0zm-172.14987 79.075l124.75073 131.50682l-6.175995 6.8495483zm-71.29895 190.925l172.04352 -4.8434143l0 9.686829zm71.29895 190.90002l118.57474 -138.33139l6.175995 6.8495483zm172.14987 79.099976l-4.3671265 -190.80704l8.734253 0zm172.12732 -79.099976l-124.72815 -131.48184l6.1759644 -6.8495483zm-187.34286 -190.90002c0 -9.319794 6.8122253 -16.875 15.215546 -16.875c8.40332 0 15.215546 7.5552063 15.215546 16.875c0 9.319794 -6.8122253 16.875 -15.215546 16.875c-8.40332 0 -15.215546 -7.5552063 -15.215546 -16.875z" fill-rule="evenodd"/></g></svg>