<svg version="1.1" viewBox="0.0 0.0 960.0 720.0" fill="none" stroke="none" stroke-linecap="square" stroke-miterlimit="10" xmlns:xlink="http://www.w3.org/1999/xlink" xmlns="http://www.w3.org/2000/svg"><clipPath id="p.0"><path d="m0 0l960.0 0l0 720.0l-960.0 0l0 -720.0z" clip-rule="nonzero"/></clipPath><g clip-path="url(#p.0)"><path fill="#000000" fill-opacity="0.0" d="m0 0l960.0 0l0 720.0l-960.0 0z" fill-rule="evenodd"/><path fill="#ffffff" d="m306.51968 163.13387l346.9606 0l0 393.7323l-346.9606 0z" fill-rule="evenodd"/><path fill="#ffffff" d="m248.69292 105.30708l462.61414 0l-57.826782 57.826782l-346.9606 0z" fill-rule="evenodd"/><path fill="#cbcbcb" d="m248.69292 614.69293l57.826767 -57.826782l346.9606 0l57.826782 57.826782z" fill-rule="evenodd"/><path fill="#ffffff" d="m248.69292 105.30708l57.826767 57.826782l0 393.7323l-57.826767 57.826782z" fill-rule="evenodd"/><path fill="#989898" d="m711.30707 105.30708l0 509.38586l-57.826782 -57.826782l0 -393.7323z" fill-rule="evenodd"/><path fill="#000000" fill-opacity="0.0" d="m248.69292 105.30708l462.61414 0l0 509.38586l-462.61414 0zm57.826767 57.826782l346.9606 0l0 393.7323l-346.9606 0zm-57.826767 -57.826782l57.826767 57.826782m-57.826767 451.55908l57.826767 -57.826782m404.78738 -451.55908l-57.826782 57.826782m57.826782 451.55908l-57.826782 -57.826782" fill-rule="evenodd"/><path stroke="#000000" stroke-width="1.0" stroke-linejoin="round" stroke-linecap="butt" d="m248.69292 105.30708l462.61414 0l0 509.38586l-462.61414 0zm57.826767 57.826782l346.9606 0l0 393.7323l-346.9606 0zm-57.826767 -57.826782l57.826767 57.826782m-57.826767 451.55908l57.826767 -57.826782m404.78738 -451.55908l-57.826782 57.826782m57.826782 451.55908l-57.826782 -57.826782" fill-rule="evenodd"/></g></svg>