<svg version="1.1" viewBox="0.0 0.0 960.0 720.0" fill="none" stroke="none" stroke-linecap="square" stroke-miterlimit="10" xmlns:xlink="http://www.w3.org/1999/xlink" xmlns="http://www.w3.org/2000/svg"><clipPath id="p.0"><path d="m0 0l960.0 0l0 720.0l-960.0 0l0 -720.0z" clip-rule="nonzero"/></clipPath><g clip-path="url(#p.0)"><path fill="#000000" fill-opacity="0.0" d="m0 0l960.0 0l0 720.0l-960.0 0z" fill-rule="evenodd"/><path fill="#ffffff" d="m263.70078 310.4987l-20.700775 -37.797913l-162.90027 -223.19946l369.0 278.99738l-94.49869 -259.19946l170.09976 285.30182l360.90027 -262.80054l-257.4016 368.09973l293.4016 162.0l-407.7008 -61.199463l-192.60104 86.398926l208.8005 -202.49869l-324.0 63.0l75.60104 -117.90027l-189.90025 -10.800507z" fill-rule="evenodd"/><path stroke="#000000" stroke-width="1.0" stroke-linejoin="round" stroke-linecap="butt" d="m263.70078 310.4987l-20.700775 -37.797913l-162.90027 -223.19946l369.0 278.99738l-94.49869 -259.19946l170.09976 285.30182l360.90027 -262.80054l-257.4016 368.09973l293.4016 162.0l-407.7008 -61.199463l-192.60104 86.398926l208.8005 -202.49869l-324.0 63.0l75.60104 -117.90027l-189.90025 -10.800507z" fill-rule="evenodd"/></g></svg>