<svg version="1.1" viewBox="0.0 0.0 960.0 720.0" fill="none" stroke="none" stroke-linecap="square" stroke-miterlimit="10" xmlns:xlink="http://www.w3.org/1999/xlink" xmlns="http://www.w3.org/2000/svg"><clipPath id="p.0"><path d="m0 0l960.0 0l0 720.0l-960.0 0l0 -720.0z" clip-rule="nonzero"/></clipPath><g clip-path="url(#p.0)"><path fill="#000000" fill-opacity="0.0" d="m0 0l960.0 0l0 720.0l-960.0 0z" fill-rule="evenodd"/><path fill="#ffffff" d="m423.83658 79.65092l105.8602 157.82626l-43.666107 18.612076l133.33847 135.24258l-43.666077 22.58368l164.84564 226.43396l-279.55972 -173.531l53.31607 -24.089264l-173.6995 -111.15332l62.24231 -34.342773l-183.39774 -116.60454z" fill-rule="evenodd"/><path stroke="#000000" stroke-width="1.0" stroke-linejoin="round" stroke-linecap="butt" d="m423.83658 79.65092l105.8602 157.82626l-43.666107 18.612076l133.33847 135.24258l-43.666077 22.58368l164.84564 226.43396l-279.55972 -173.531l53.31607 -24.089264l-173.6995 -111.15332l62.24231 -34.342773l-183.39774 -116.60454z" fill-rule="evenodd"/></g></svg>