<svg version="1.1" viewBox="0.0 0.0 960.0 720.0" fill="none" stroke="none" stroke-linecap="square" stroke-miterlimit="10" xmlns:xlink="http://www.w3.org/1999/xlink" xmlns="http://www.w3.org/2000/svg"><clipPath id="p.0"><path d="m0 0l960.0 0l0 720.0l-960.0 0l0 -720.0z" clip-rule="nonzero"/></clipPath><g clip-path="url(#p.0)"><path fill="#000000" fill-opacity="0.0" d="m0 0l960.0 0l0 720.0l-960.0 0z" fill-rule="evenodd"/><path fill="#ffffff" d="m511.1989 318.60175c-35.69989 -32.39981 -69.749756 -178.35081 -125.09973 -173.70078c-55.349945 4.6500397 -200.10016 133.35126 -206.99998 201.60104c-6.899826 68.24979 93.30095 185.24805 165.60103 207.89764c72.30011 22.649597 225.59976 -36.150024 268.1995 -72.0c42.59973 -35.849945 4.34906 -115.80008 -12.601074 -143.09973c-16.950134 -27.299652 -53.39978 11.70166 -89.09973 -20.698181z" fill-rule="evenodd"/><path stroke="#000000" stroke-width="1.0" stroke-linejoin="round" stroke-linecap="butt" d="m511.1989 318.60175c-35.69989 -32.39981 -69.749756 -178.35081 -125.09973 -173.70078c-55.349945 4.6500397 -200.10016 133.35126 -206.99998 201.60104c-6.899826 68.24979 93.30095 185.24805 165.60103 207.89764c72.30011 22.649597 225.59976 -36.150024 268.1995 -72.0c42.59973 -35.849945 4.34906 -115.80008 -12.601074 -143.09973c-16.950134 -27.299652 -53.39978 11.70166 -89.09973 -20.698181z" fill-rule="evenodd"/></g></svg>