<svg version="1.1" viewBox="0.0 0.0 960.0 720.0" fill="none" stroke="none" stroke-linecap="square" stroke-miterlimit="10" xmlns:xlink="http://www.w3.org/1999/xlink" xmlns="http://www.w3.org/2000/svg"><clipPath id="p.0"><path d="m0 0l960.0 0l0 720.0l-960.0 0l0 -720.0z" clip-rule="nonzero"/></clipPath><g clip-path="url(#p.0)"><path fill="#000000" fill-opacity="0.0" d="m0 0l960.0 0l0 720.0l-960.0 0z" fill-rule="evenodd"/><path fill="#ffffff" d="m204.59842 360.0c0 -152.10008 123.30148 -275.40158 275.40158 -275.40158c73.041016 0 143.09052 29.015442 194.73834 80.663246c51.647766 51.647827 80.66321 121.69728 80.66321 194.73833c0 152.1001 -123.30145 275.40155 -275.40155 275.40155c-152.1001 0 -275.40158 -123.30145 -275.40158 -275.40155zm137.7008 0c0 76.05005 61.650726 137.70078 137.70078 137.70078c76.05005 0 137.7008 -61.650726 137.7008 -137.70078c0 -76.05005 -61.650757 -137.70079 -137.7008 -137.70079c-76.05005 0 -137.70078 61.65074 -137.70078 137.70079z" fill-rule="evenodd"/><path stroke="#000000" stroke-width="1.0" stroke-linejoin="round" stroke-linecap="butt" d="m204.59842 360.0c0 -152.10008 123.30148 -275.40158 275.40158 -275.40158c73.041016 0 143.09052 29.015442 194.73834 80.663246c51.647766 51.647827 80.66321 121.69728 80.66321 194.73833c0 152.1001 -123.30145 275.40155 -275.40155 275.40155c-152.1001 0 -275.40158 -123.30145 -275.40158 -275.40155zm137.7008 0c0 76.05005 61.650726 137.70078 137.70078 137.70078c76.05005 0 137.7008 -61.650726 137.7008 -137.70078c0 -76.05005 -61.650757 -137.70079 -137.7008 -137.70079c-76.05005 0 -137.70078 61.65074 -137.70078 137.70079z" fill-rule="evenodd"/></g></svg>