<svg version="1.1" viewBox="0.0 0.0 960.0 720.0" fill="none" stroke="none" stroke-linecap="square" stroke-miterlimit="10" xmlns:xlink="http://www.w3.org/1999/xlink" xmlns="http://www.w3.org/2000/svg"><clipPath id="p.0"><path d="m0 0l960.0 0l0 720.0l-960.0 0l0 -720.0z" clip-rule="nonzero"/></clipPath><g clip-path="url(#p.0)"><path fill="#000000" fill-opacity="0.0" d="m0 0l960.0 0l0 720.0l-960.0 0z" fill-rule="evenodd"/><path fill="#ffffff" d="m84.456696 360.0c0 -71.82312 177.09076 -130.04724 395.5433 -130.04724c218.45251 0 395.54333 58.22412 395.54333 130.04724c0 71.82312 -177.09082 130.04724 -395.54333 130.04724c-218.45255 0 -395.5433 -58.22412 -395.5433 -130.04724z" fill-rule="evenodd"/><path stroke="#000000" stroke-width="1.0" stroke-linejoin="round" stroke-linecap="butt" d="m84.456696 360.0c0 -71.82312 177.09076 -130.04724 395.5433 -130.04724c218.45251 0 395.54333 58.22412 395.54333 130.04724c0 71.82312 -177.09082 130.04724 -395.54333 130.04724c-218.45255 0 -395.5433 -58.22412 -395.5433 -130.04724z" fill-rule="evenodd"/></g></svg>