<svg version="1.1" viewBox="0.0 0.0 960.0 720.0" fill="none" stroke="none" stroke-linecap="square" stroke-miterlimit="10" xmlns:xlink="http://www.w3.org/1999/xlink" xmlns="http://www.w3.org/2000/svg"><clipPath id="p.0"><path d="m0 0l960.0 0l0 720.0l-960.0 0l0 -720.0z" clip-rule="nonzero"/></clipPath><g clip-path="url(#p.0)"><path fill="#000000" fill-opacity="0.0" d="m0 0l960.0 0l0 720.0l-960.0 0z" fill-rule="evenodd"/><path fill="#ffffff" d="m329.39883 361.80182c-18.599731 -43.349945 -109.348206 -164.10062 -101.69815 -209.70079c7.6500397 -45.600166 84.748474 -91.80008 147.59842 -63.900253c62.849945 27.899826 192.75107 228.89896 229.50131 231.29922c36.750244 2.400238 -49.650024 -198.14787 -9.0 -216.89764c40.650024 -18.749779 227.40027 15.898949 252.90027 104.39895c25.5 88.500015 -56.69989 378.15094 -99.90027 426.60107c-43.20038 48.450134 -116.551636 -145.95013 -159.30182 -135.90027c-42.750244 10.049866 -18.599731 172.9497 -97.19949 196.19946c-78.59973 23.249817 -360.44925 -31.650879 -374.39896 -56.700806c-13.949692 -25.049866 292.35083 -73.04852 290.7008 -93.59839c-1.6500549 -20.549866 -289.05075 -7.800537 -300.60107 -29.700806c-11.550308 -21.900238 194.3994 -76.35083 231.29921 -101.700775c36.89981 -25.349945 8.699463 -7.049011 -9.900269 -50.398956z" fill-rule="evenodd"/><path stroke="#000000" stroke-width="1.0" stroke-linejoin="round" stroke-linecap="butt" d="m329.39883 361.80182c-18.599731 -43.349945 -109.348206 -164.10062 -101.69815 -209.70079c7.6500397 -45.600166 84.748474 -91.80008 147.59842 -63.900253c62.849945 27.899826 192.75107 228.89896 229.50131 231.29922c36.750244 2.400238 -49.650024 -198.14787 -9.0 -216.89764c40.650024 -18.749779 227.40027 15.898949 252.90027 104.39895c25.5 88.500015 -56.69989 378.15094 -99.90027 426.60107c-43.20038 48.450134 -116.551636 -145.95013 -159.30182 -135.90027c-42.750244 10.049866 -18.599731 172.9497 -97.19949 196.19946c-78.59973 23.249817 -360.44925 -31.650879 -374.39896 -56.700806c-13.949692 -25.049866 292.35083 -73.04852 290.7008 -93.59839c-1.6500549 -20.549866 -289.05075 -7.800537 -300.60107 -29.700806c-11.550308 -21.900238 194.3994 -76.35083 231.29921 -101.700775c36.89981 -25.349945 8.699463 -7.049011 -9.900269 -50.398956z" fill-rule="evenodd"/></g></svg>