<svg version="1.1" viewBox="0.0 0.0 960.0 720.0" fill="none" stroke="none" stroke-linecap="square" stroke-miterlimit="10" xmlns:xlink="http://www.w3.org/1999/xlink" xmlns="http://www.w3.org/2000/svg"><clipPath id="p.0"><path d="m0 0l960.0 0l0 720.0l-960.0 0l0 -720.0z" clip-rule="nonzero"/></clipPath><g clip-path="url(#p.0)"><path fill="#000000" fill-opacity="0.0" d="m0 0l960.0 0l0 720.0l-960.0 0z" fill-rule="evenodd"/><path fill="#ffffff" d="m407.70102 420.2999c14.699921 -5.100189 57.898956 48.90027 5.3989563 -8.099731c-52.5 -57.0 -349.34906 -326.1002 -320.39896 -333.90027c28.950134 -7.800087 408.15005 278.39938 494.09976 287.09973c85.94971 8.700348 -17.401611 -221.54767 21.598389 -234.89763c39.0 -13.34996 196.80145 86.848206 212.40161 154.7979c15.600159 67.94971 -126.15051 206.5503 -118.80054 252.90024c7.3499756 46.349976 151.0503 6.7493896 162.90027 25.199524c11.849976 18.450134 -36.75067 88.800964 -91.80054 85.50128c-55.049866 -3.2996216 -198.89893 -109.94928 -238.49866 -105.299194c-39.599762 4.6500244 54.300476 121.19946 0.9002075 133.19946c-53.400238 12.0 -306.45142 -35.099304 -321.30182 -61.199463c-14.850403 -26.100159 249.14915 -76.95148 232.19948 -95.40161c-16.949707 -18.450104 -331.64786 -6.7493286 -333.89764 -15.299194c-2.2497787 -8.549866 284.9991 -25.650024 320.39896 -36.0c35.39981 -10.349945 -103.80011 -17.999542 -108.0 -26.099731c-4.1999207 -8.100189 68.10062 -17.401123 82.80051 -22.501312z" fill-rule="evenodd"/><path stroke="#000000" stroke-width="1.0" stroke-linejoin="round" stroke-linecap="butt" d="m407.70102 420.2999c14.699921 -5.100189 57.898956 48.90027 5.3989563 -8.099731c-52.5 -57.0 -349.34906 -326.1002 -320.39896 -333.90027c28.950134 -7.800087 408.15005 278.39938 494.09976 287.09973c85.94971 8.700348 -17.401611 -221.54767 21.598389 -234.89763c39.0 -13.34996 196.80145 86.848206 212.40161 154.7979c15.600159 67.94971 -126.15051 206.5503 -118.80054 252.90024c7.3499756 46.349976 151.0503 6.7493896 162.90027 25.199524c11.849976 18.450134 -36.75067 88.800964 -91.80054 85.50128c-55.049866 -3.2996216 -198.89893 -109.94928 -238.49866 -105.299194c-39.599762 4.6500244 54.300476 121.19946 0.9002075 133.19946c-53.400238 12.0 -306.45142 -35.099304 -321.30182 -61.199463c-14.850403 -26.100159 249.14915 -76.95148 232.19948 -95.40161c-16.949707 -18.450104 -331.64786 -6.7493286 -333.89764 -15.299194c-2.2497787 -8.549866 284.9991 -25.650024 320.39896 -36.0c35.39981 -10.349945 -103.80011 -17.999542 -108.0 -26.099731c-4.1999207 -8.100189 68.10062 -17.401123 82.80051 -22.501312z" fill-rule="evenodd"/></g></svg>