<svg version="1.1" viewBox="0.0 0.0 960.0 720.0" fill="none" stroke="none" stroke-linecap="square" stroke-miterlimit="10" xmlns:xlink="http://www.w3.org/1999/xlink" xmlns="http://www.w3.org/2000/svg"><clipPath id="p.0"><path d="m0 0l960.0 0l0 720.0l-960.0 0l0 -720.0z" clip-rule="nonzero"/></clipPath><g clip-path="url(#p.0)"><path fill="#000000" fill-opacity="0.0" d="m0 0l960.0 0l0 720.0l-960.0 0z" fill-rule="evenodd"/><path fill="#ffffff" d="m55.799557 245.70091c125.84996 -4.950119 615.45013 -18.300964 756.0 5.3989563c140.54987 23.699905 209.0993 112.35039 87.299194 136.80052c-121.80005 24.450134 -677.6999 27.750214 -818.09973 9.900269c-140.39983 -17.849976 -20.099297 -91.650055 -24.29921 -117.0c-4.199913 -25.34996 -126.75022 -30.149612 -0.90026474 -35.099747z" fill-rule="evenodd"/><path stroke="#000000" stroke-width="1.0" stroke-linejoin="round" stroke-linecap="butt" d="m55.799557 245.70091c125.84996 -4.950119 615.45013 -18.300964 756.0 5.3989563c140.54987 23.699905 209.0993 112.35039 87.299194 136.80052c-121.80005 24.450134 -677.6999 27.750214 -818.09973 9.900269c-140.39983 -17.849976 -20.099297 -91.650055 -24.29921 -117.0c-4.199913 -25.34996 -126.75022 -30.149612 -0.90026474 -35.099747z" fill-rule="evenodd"/></g></svg>