<svg version="1.1" viewBox="0.0 0.0 960.0 720.0" fill="none" stroke="none" stroke-linecap="square" stroke-miterlimit="10" xmlns:xlink="http://www.w3.org/1999/xlink" xmlns="http://www.w3.org/2000/svg"><clipPath id="p.0"><path d="m0 0l960.0 0l0 720.0l-960.0 0l0 -720.0z" clip-rule="nonzero"/></clipPath><g clip-path="url(#p.0)"><path fill="#000000" fill-opacity="0.0" d="m0 0l960.0 0l0 720.0l-960.0 0z" fill-rule="evenodd"/><path fill="#ffffff" d="m114.149605 197.39983c0 -44.900803 163.79681 -81.30009 365.8504 -81.30009c202.05359 0 365.8504 36.399284 365.8504 81.30009l0 325.20032c0 44.900818 -163.79681 81.30011 -365.8504 81.30011c-202.05359 0 -365.8504 -36.399292 -365.8504 -81.30011z" fill-rule="evenodd"/><path fill="#000000" fill-opacity="0.0" d="m845.8504 197.39983c0 44.900803 -163.79681 81.300095 -365.8504 81.300095c-202.05359 0 -365.8504 -36.399292 -365.8504 -81.300095" fill-rule="evenodd"/><path fill="#000000" fill-opacity="0.0" d="m114.149605 197.39983c0 -44.900803 163.79681 -81.30009 365.8504 -81.30009c202.05359 0 365.8504 36.399284 365.8504 81.30009l0 325.20032c0 44.900818 -163.79681 81.30011 -365.8504 81.30011c-202.05359 0 -365.8504 -36.399292 -365.8504 -81.30011z" fill-rule="evenodd"/><path stroke="#000000" stroke-width="1.0" stroke-linejoin="round" stroke-linecap="butt" d="m845.8504 197.39983c0 44.900803 -163.79681 81.300095 -365.8504 81.300095c-202.05359 0 -365.8504 -36.399292 -365.8504 -81.300095" fill-rule="evenodd"/><path stroke="#000000" stroke-width="1.0" stroke-linejoin="round" stroke-linecap="butt" d="m114.149605 197.39983c0 -44.900803 163.79681 -81.30009 365.8504 -81.30009c202.05359 0 365.8504 36.399284 365.8504 81.30009l0 325.20032c0 44.900818 -163.79681 81.30011 -365.8504 81.30011c-202.05359 0 -365.8504 -36.399292 -365.8504 -81.30011z" fill-rule="evenodd"/></g></svg>