<svg version="1.1" viewBox="0.0 0.0 960.0 720.0" fill="none" stroke="none" stroke-linecap="square" stroke-miterlimit="10" xmlns:xlink="http://www.w3.org/1999/xlink" xmlns="http://www.w3.org/2000/svg"><clipPath id="p.0"><path d="m0 0l960.0 0l0 720.0l-960.0 0l0 -720.0z" clip-rule="nonzero"/></clipPath><g clip-path="url(#p.0)"><path fill="#000000" fill-opacity="0.0" d="m0 0l960.0 0l0 720.0l-960.0 0z" fill-rule="evenodd"/><path fill="#ffffff" d="m277.95276 179.39767c0 -37.19661 30.153809 -67.35043 67.35043 -67.35043l269.39365 0c17.862427 0 34.993286 7.095833 47.6239 19.726486c12.630676 12.630661 19.726501 29.761505 19.726501 47.623947l0 361.20468c0 37.196594 -30.153809 67.3504 -67.3504 67.3504l-269.39365 0c-37.196625 0 -67.35043 -30.153809 -67.35043 -67.3504z" fill-rule="evenodd"/><path stroke="#000000" stroke-width="1.0" stroke-linejoin="round" stroke-linecap="butt" d="m277.95276 179.39767c0 -37.19661 30.153809 -67.35043 67.35043 -67.35043l269.39365 0c17.862427 0 34.993286 7.095833 47.6239 19.726486c12.630676 12.630661 19.726501 29.761505 19.726501 47.623947l0 361.20468c0 37.196594 -30.153809 67.3504 -67.3504 67.3504l-269.39365 0c-37.196625 0 -67.35043 -30.153809 -67.35043 -67.3504z" fill-rule="evenodd"/></g></svg>