<svg version="1.1" viewBox="0.0 0.0 960.0 720.0" fill="none" stroke="none" stroke-linecap="square" stroke-miterlimit="10" xmlns:xlink="http://www.w3.org/1999/xlink" xmlns="http://www.w3.org/2000/svg"><clipPath id="p.0"><path d="m0 0l960.0 0l0 720.0l-960.0 0l0 -720.0z" clip-rule="nonzero"/></clipPath><g clip-path="url(#p.0)"><path fill="#000000" fill-opacity="0.0" d="m0 0l960.0 0l0 720.0l-960.0 0z" fill-rule="evenodd"/><path fill="#ffffff" d="m235.14948 270.82974c-4.8183136 -42.978333 11.001175 -85.52426 40.745697 -109.584c29.744507 -24.059738 68.19751 -25.413712 99.04193 -3.4873962c10.926056 -24.98938 30.92389 -42.24283 53.94458 -46.541504c23.02069 -4.2986755 46.360382 4.86232 62.95923 24.711945c9.307587 -22.656975 27.58316 -37.87957 48.341644 -40.266006c20.758484 -2.386444 41.062073 8.401001 53.70587 28.5344c16.81549 -24.016342 43.569397 -34.12822 68.68512 -25.960167c25.115723 8.168045 44.082275 33.14897 48.69275 64.13338c20.601807 6.820755 37.762756 24.159973 47.04889 47.537796c9.286133 23.377823 9.78656 50.5009 1.3719482 74.36153c20.286804 32.047455 25.03241 74.750275 12.46582 112.172516c-12.566589 37.42227 -40.557373 63.941742 -73.52673 69.66177c-0.23236084 35.12213 -16.102112 67.34979 -41.49225 84.26099c-25.390198 16.911255 -56.33606 15.865295 -80.90973 -2.7346802c-10.467041 42.06482 -39.928406 73.015686 -75.65558 79.480774c-35.727203 6.465027 -71.31546 -12.714783 -91.38934 -49.25305c-24.606384 18.009827 -54.13199 23.197876 -81.91644 14.39386c-27.784454 -8.804016 -51.487335 -30.858582 -65.76175 -61.188477c-25.144623 3.5714111 -49.45601 -12.240906 -60.8685 -39.589325c-11.412476 -27.34842 -7.4966125 -60.411163 9.804169 -82.7793c-22.429672 -16.023468 -33.874634 -47.819336 -28.366806 -78.80731c5.507843 -30.987976 26.720367 -54.146057 52.576096 -57.398224z" fill-rule="evenodd"/><path fill="#000000" fill-opacity="0.0" d="m210.44315 408.69174c10.584625 7.5615234 22.812347 10.991608 35.041397 9.829712m16.01744 112.541595c5.2589417 -0.74694824 10.413696 -2.3287354 15.331329 -4.704529m132.33951 51.497192c-3.698822 -6.732483 -6.795624 -13.926758 -9.237701 -21.460205m176.289 -8.768799c1.9083252 -7.6690063 3.1447144 -15.562134 3.6886597 -23.547607m118.70868 -57.975708c0.24743652 -37.392914 -17.25055 -71.63028 -44.977966 -88.0061m106.03833 -93.82422c-4.4903564 12.733002 -11.345398 24.02826 -20.027649 33.000183m-28.389038 -154.90285c0.7651367 5.141876 1.1192017 10.361023 1.057373 15.585114m-118.43323 -53.756783c-4.19458 5.990883 -7.6504517 12.685616 -10.259827 19.875755m-91.788635 -8.146759c-2.235382 5.4414825 -3.9046326 11.199493 -4.969269 17.141403m-111.93625 4.6885986c6.5266724 4.6396027 12.564728 10.223846 17.981506 16.630081m-157.76733 96.441925c0.664093 5.923523 1.7133789 11.774017 3.1380615 17.496735" fill-rule="evenodd"/><path stroke="#000000" stroke-width="1.0" stroke-linejoin="round" stroke-linecap="butt" d="m235.14948 270.82974c-4.8183136 -42.978333 11.001175 -85.52426 40.745697 -109.584c29.744507 -24.059738 68.19751 -25.413712 99.04193 -3.4873962c10.926056 -24.98938 30.92389 -42.24283 53.94458 -46.541504c23.02069 -4.2986755 46.360382 4.86232 62.95923 24.711945c9.307587 -22.656975 27.58316 -37.87957 48.341644 -40.266006c20.758484 -2.386444 41.062073 8.401001 53.70587 28.5344c16.81549 -24.016342 43.569397 -34.12822 68.68512 -25.960167c25.115723 8.168045 44.082275 33.14897 48.69275 64.13338c20.601807 6.820755 37.762756 24.159973 47.04889 47.537796c9.286133 23.377823 9.78656 50.5009 1.3719482 74.36153c20.286804 32.047455 25.03241 74.750275 12.46582 112.172516c-12.566589 37.42227 -40.557373 63.941742 -73.52673 69.66177c-0.23236084 35.12213 -16.102112 67.34979 -41.49225 84.26099c-25.390198 16.911255 -56.33606 15.865295 -80.90973 -2.7346802c-10.467041 42.06482 -39.928406 73.015686 -75.65558 79.480774c-35.727203 6.465027 -71.31546 -12.714783 -91.38934 -49.25305c-24.606384 18.009827 -54.13199 23.197876 -81.91644 14.39386c-27.784454 -8.804016 -51.487335 -30.858582 -65.76175 -61.188477c-25.144623 3.5714111 -49.45601 -12.240906 -60.8685 -39.589325c-11.412476 -27.34842 -7.4966125 -60.411163 9.804169 -82.7793c-22.429672 -16.023468 -33.874634 -47.819336 -28.366806 -78.80731c5.507843 -30.987976 26.720367 -54.146057 52.576096 -57.398224z" fill-rule="evenodd"/><path stroke="#000000" stroke-width="1.0" stroke-linejoin="round" stroke-linecap="butt" d="m210.44315 408.69174c10.584625 7.5615234 22.812347 10.991608 35.041397 9.829712m16.01744 112.541595c5.2589417 -0.74694824 10.413696 -2.3287354 15.331329 -4.704529m132.33951 51.497192c-3.698822 -6.732483 -6.795624 -13.926758 -9.237701 -21.460205m176.289 -8.768799c1.9083252 -7.6690063 3.1447144 -15.562134 3.6886597 -23.547607m118.70868 -57.975708c0.24743652 -37.392914 -17.25055 -71.63028 -44.977966 -88.0061m106.03833 -93.82422c-4.4903564 12.733002 -11.345398 24.02826 -20.027649 33.000183m-28.389038 -154.90285c0.7651367 5.141876 1.1192017 10.361023 1.057373 15.585114m-118.43323 -53.756783c-4.19458 5.990883 -7.6504517 12.685616 -10.259827 19.875755m-91.788635 -8.146759c-2.235382 5.4414825 -3.9046326 11.199493 -4.969269 17.141403m-111.93625 4.6885986c6.5266724 4.6396027 12.564728 10.223846 17.981506 16.630081m-157.76733 96.441925c0.664093 5.923523 1.7133789 11.774017 3.1380615 17.496735" fill-rule="evenodd"/></g></svg>