<svg version="1.1" viewBox="0.0 0.0 960.0 720.0" fill="none" stroke="none" stroke-linecap="square" stroke-miterlimit="10" xmlns:xlink="http://www.w3.org/1999/xlink" xmlns="http://www.w3.org/2000/svg"><clipPath id="p.0"><path d="m0 0l960.0 0l0 720.0l-960.0 0l0 -720.0z" clip-rule="nonzero"/></clipPath><g clip-path="url(#p.0)"><path fill="#000000" fill-opacity="0.0" d="m0 0l960.0 0l0 720.0l-960.0 0z" fill-rule="evenodd"/><path fill="#ffffff" d="m273.90552 360.0c0 -113.822845 92.27164 -206.09448 206.09448 -206.09448c54.659668 0 107.08057 21.713455 145.73083 60.363678c38.650208 38.650208 60.363647 91.07114 60.363647 145.7308c0 113.822845 -92.27167 206.09448 -206.09448 206.09448c-113.822845 0 -206.09448 -92.27164 -206.09448 -206.09448z" fill-rule="evenodd"/><path stroke="#000000" stroke-width="1.0" stroke-linejoin="round" stroke-linecap="butt" d="m273.90552 360.0c0 -113.822845 92.27164 -206.09448 206.09448 -206.09448c54.659668 0 107.08057 21.713455 145.73083 60.363678c38.650208 38.650208 60.363647 91.07114 60.363647 145.7308c0 113.822845 -92.27167 206.09448 -206.09448 206.09448c-113.822845 0 -206.09448 -92.27164 -206.09448 -206.09448z" fill-rule="evenodd"/></g></svg>