<svg version="1.1" viewBox="0.0 0.0 960.0 720.0" fill="none" stroke="none" stroke-linecap="square" stroke-miterlimit="10" xmlns:xlink="http://www.w3.org/1999/xlink" xmlns="http://www.w3.org/2000/svg"><clipPath id="p.0"><path d="m0 0l960.0 0l0 720.0l-960.0 0l0 -720.0z" clip-rule="nonzero"/></clipPath><g clip-path="url(#p.0)"><path fill="#000000" fill-opacity="0.0" d="m0 0l960.0 0l0 720.0l-960.0 0z" fill-rule="evenodd"/><path fill="#ffffff" d="m40.80315 195.01772c146.39896 -78.56299 292.79788 78.563 439.19684 0c146.39893 -78.56299 292.7979 78.563 439.19684 0l0 329.9646c-146.39893 78.56299 -292.7979 -78.56302 -439.19684 0c-146.39896 78.56299 -292.7979 -78.56302 -439.19684 0z" fill-rule="evenodd"/><path stroke="#000000" stroke-width="1.0" stroke-linejoin="round" stroke-linecap="butt" d="m40.80315 195.01772c146.39896 -78.56299 292.79788 78.563 439.19684 0c146.39893 -78.56299 292.7979 78.563 439.19684 0l0 329.9646c-146.39893 78.56299 -292.7979 -78.56302 -439.19684 0c-146.39896 78.56299 -292.7979 -78.56302 -439.19684 0z" fill-rule="evenodd"/></g></svg>