<svg version="1.1" viewBox="0.0 0.0 960.0 720.0" fill="none" stroke="none" stroke-linecap="square" stroke-miterlimit="10" xmlns:xlink="http://www.w3.org/1999/xlink" xmlns="http://www.w3.org/2000/svg"><clipPath id="p.0"><path d="m0 0l960.0 0l0 720.0l-960.0 0l0 -720.0z" clip-rule="nonzero"/></clipPath><g clip-path="url(#p.0)"><path fill="#000000" fill-opacity="0.0" d="m0 0l960.0 0l0 720.0l-960.0 0z" fill-rule="evenodd"/><path fill="#ffffff" d="m196.94489 360.0c0 -156.32703 126.72809 -283.0551 283.0551 -283.0551c156.32703 0 283.0551 126.72809 283.0551 283.0551c0 156.32703 -126.72809 283.0551 -283.0551 283.0551c-156.32703 0 -283.0551 -126.72809 -283.0551 -283.0551z" fill-rule="evenodd"/><path fill="#cbcbcb" d="m359.8326 275.34555c0 -16.284058 13.200836 -29.48491 29.484924 -29.48491c16.284058 0 29.484894 13.200851 29.484894 29.48491c0 16.284058 -13.200836 29.484924 -29.484894 29.484924c-16.284088 0 -29.484924 -13.200867 -29.484924 -29.484924m181.36496 0c0 -16.284058 13.200867 -29.48491 29.484924 -29.48491c16.284058 0 29.484863 13.200851 29.484863 29.48491c0 16.284058 -13.200806 29.484924 -29.484863 29.484924c-16.284058 0 -29.484924 -13.200867 -29.484924 -29.484924" fill-rule="evenodd"/><path fill="#000000" fill-opacity="0.0" d="m326.58228 483.44223q153.41772 105.36441 306.47717 0" fill-rule="evenodd"/><path fill="#000000" fill-opacity="0.0" d="m196.94489 360.0c0 -156.32703 126.72809 -283.0551 283.0551 -283.0551c156.32703 0 283.0551 126.72809 283.0551 283.0551c0 156.32703 -126.72809 283.0551 -283.0551 283.0551c-156.32703 0 -283.0551 -126.72809 -283.0551 -283.0551z" fill-rule="evenodd"/><path stroke="#000000" stroke-width="1.0" stroke-linejoin="round" stroke-linecap="butt" d="m359.8326 275.34555c0 -16.284058 13.200836 -29.48491 29.484924 -29.48491c16.284058 0 29.484894 13.200851 29.484894 29.48491c0 16.284058 -13.200836 29.484924 -29.484894 29.484924c-16.284088 0 -29.484924 -13.200867 -29.484924 -29.484924m181.36496 0c0 -16.284058 13.200867 -29.48491 29.484924 -29.48491c16.284058 0 29.484863 13.200851 29.484863 29.48491c0 16.284058 -13.200806 29.484924 -29.484863 29.484924c-16.284058 0 -29.484924 -13.200867 -29.484924 -29.484924" fill-rule="evenodd"/><path stroke="#000000" stroke-width="1.0" stroke-linejoin="round" stroke-linecap="butt" d="m326.58228 483.44223q153.41772 105.36441 306.47717 0" fill-rule="evenodd"/><path stroke="#000000" stroke-width="1.0" stroke-linejoin="round" stroke-linecap="butt" d="m196.94489 360.0c0 -156.32703 126.72809 -283.0551 283.0551 -283.0551c156.32703 0 283.0551 126.72809 283.0551 283.0551c0 156.32703 -126.72809 283.0551 -283.0551 283.0551c-156.32703 0 -283.0551 -126.72809 -283.0551 -283.0551z" fill-rule="evenodd"/></g></svg>